<?xml version="1.0" encoding="UTF-8" standalone="no"?><!DOCTYPE svg PUBLIC "-//W3C//DTD SVG 1.1//EN" "http://www.w3.org/Graphics/SVG/1.1/DTD/svg11.dtd"><svg width="100%" height="100%" viewBox="0 0 1200 480" version="1.1" xmlns="http://www.w3.org/2000/svg" xmlns:xlink="http://www.w3.org/1999/xlink" xml:space="preserve" xmlns:serif="http://www.serif.com/" style="fill-rule:evenodd;clip-rule:evenodd;stroke-linejoin:round;stroke-miterlimit:1.41421;"><rect id="COOK-Hourglass" serif:id="COOK Hourglass" x="0" y="0" width="1200" height="480" style="fill:none;"/><path d="M745.3,228.64l142.4,-130l12.8,0l-144,130l151.2,153.2l-12.4,0l-150,-152.4l-0.4,0l0,152.4l-8.8,0l0,-283.2l8.8,0l0,130l0.4,0Z" style="fill-rule:nonzero;"/><path d="M744.02,240c0,21.867 -3.667,41.933 -11,60.2c-7.333,18.267 -17.467,34 -30.4,47.2c-12.933,13.2 -28.333,23.533 -46.2,31c-17.867,7.467 -37.2,11.2 -58,11.2c-20.8,0 -40.133,-3.733 -58,-11.2c-17.867,-7.467 -33.267,-17.8 -46.2,-31c-12.933,-13.2 -23.067,-28.933 -30.4,-47.2c-7.333,-18.267 -11,-38.333 -11,-60.2c0,-21.867 3.667,-41.933 11,-60.2c7.333,-18.267 17.467,-34 30.4,-47.2c12.933,-13.2 28.267,-23.533 46,-31c17.733,-7.467 37.133,-11.2 58.2,-11.2c21.067,0 40.467,3.733 58.2,11.2c17.733,7.467 33.067,17.8 46,31c12.933,13.2 23.067,28.933 30.4,47.2c7.333,18.267 11,38.333 11,60.2Zm-8.8,0c0,-19.733 -3.333,-38.2 -10,-55.4c-6.667,-17.2 -16.067,-32.2 -28.2,-45c-12.133,-12.8 -26.6,-22.867 -43.4,-30.2c-16.8,-7.333 -35.2,-11 -55.2,-11c-20,0 -38.4,3.667 -55.2,11c-16.8,7.333 -31.267,17.4 -43.4,30.2c-12.133,12.8 -21.533,27.8 -28.2,45c-6.667,17.2 -10,35.667 -10,55.4c0,19.733 3.267,38.2 9.8,55.4c6.533,17.2 15.8,32.2 27.8,45c12,12.8 26.4,22.867 43.2,30.2c16.8,7.333 35.467,11 56,11c20.533,0 39.2,-3.667 56,-11c16.8,-7.333 31.2,-17.4 43.2,-30.2c12,-12.8 21.267,-27.8 27.8,-45c6.533,-17.2 9.8,-35.667 9.8,-55.4Z" style="fill-rule:nonzero;"/><path d="M513.22,240c0,21.867 -3.667,41.933 -11,60.2c-7.333,18.267 -17.467,34 -30.4,47.2c-12.933,13.2 -28.333,23.533 -46.2,31c-17.867,7.467 -37.2,11.2 -58,11.2c-20.8,0 -40.133,-3.733 -58,-11.2c-17.867,-7.467 -33.267,-17.8 -46.2,-31c-12.933,-13.2 -23.067,-28.933 -30.4,-47.2c-7.333,-18.267 -11,-38.333 -11,-60.2c0,-21.867 3.667,-41.933 11,-60.2c7.333,-18.267 17.467,-34 30.4,-47.2c12.933,-13.2 28.267,-23.533 46,-31c17.733,-7.467 37.133,-11.2 58.2,-11.2c21.067,0 40.467,3.733 58.2,11.2c17.733,7.467 33.067,17.8 46,31c12.933,13.2 23.067,28.933 30.4,47.2c7.333,18.267 11,38.333 11,60.2Zm-8.8,0c0,-19.733 -3.333,-38.2 -10,-55.4c-6.667,-17.2 -16.067,-32.2 -28.2,-45c-12.133,-12.8 -26.6,-22.867 -43.4,-30.2c-16.8,-7.333 -35.2,-11 -55.2,-11c-20,0 -38.4,3.667 -55.2,11c-16.8,7.333 -31.267,17.4 -43.4,30.2c-12.133,12.8 -21.533,27.8 -28.2,45c-6.667,17.2 -10,35.667 -10,55.4c0,19.733 3.267,38.2 9.8,55.4c6.533,17.2 15.8,32.2 27.8,45c12,12.8 26.4,22.867 43.2,30.2c16.8,7.333 35.467,11 56,11c20.533,0 39.2,-3.667 56,-11c16.8,-7.333 31.2,-17.4 43.2,-30.2c12,-12.8 21.267,-27.8 27.8,-45c6.533,-17.2 9.8,-35.667 9.8,-55.4Z" style="fill-rule:nonzero;"/><path d="M271.457,351.065c-12.501,13.968 -28.003,24.161 -46.508,30.579c-18.504,6.418 -37.218,9.293 -56.139,8.625c-21.32,-0.753 -40.643,-5.17 -57.969,-13.253c-17.325,-8.083 -32.151,-18.946 -44.478,-32.589c-12.326,-13.643 -21.696,-29.784 -28.109,-48.422c-6.414,-18.638 -9.239,-38.75 -8.478,-60.336c0.762,-21.587 4.999,-41.45 12.71,-59.589c7.711,-18.139 18.196,-33.579 31.453,-46.32c13.258,-12.74 28.88,-22.528 46.865,-29.365c17.986,-6.836 37.506,-9.883 58.559,-9.14c17.589,0.621 34.606,4.223 51.051,10.807c16.444,6.584 30.313,16.213 41.607,28.886l-5.822,6.198c-5.39,-6.06 -11.538,-11.414 -18.445,-16.06c-6.907,-4.647 -14.24,-8.574 -21.998,-11.783c-7.759,-3.209 -15.612,-5.621 -23.56,-7.236c-7.948,-1.615 -15.653,-2.554 -23.115,-2.817c-20.254,-0.715 -38.839,2.298 -55.753,9.039c-16.915,6.741 -31.528,16.298 -43.839,28.672c-12.311,12.373 -22.034,27.039 -29.17,43.998c-7.136,16.959 -11.052,35.299 -11.748,55.02c-0.696,19.721 1.851,38.289 7.64,55.704c5.789,17.415 14.388,32.728 25.796,45.939c11.407,13.21 25.31,23.774 41.708,31.69c16.397,7.917 34.857,12.238 55.377,12.962c17.589,0.621 35.098,-2.164 52.527,-8.353c17.43,-6.189 31.98,-15.882 43.653,-29.078l6.185,6.222Z" style="fill-rule:nonzero;"/><path d="M1009.72,213.04l77.2,-114.4l34.4,0l-94,134.8l104,148.4l-36,0l-86.4,-127.6l-86,127.6l-36,0l104,-148.8l-94.8,-134.4l36,0l77.6,114.4Z" style="fill-rule:nonzero;"/><path d="M1023.52,381.84l-28.8,0l0,-122l-106,-161.2l36,0l85.2,137.2l86,-137.2l33.6,0l-106,161.2l0,122Z" style="fill-rule:nonzero;"/><path d="M1108.72,122.64l-165.2,233.6l167.6,0l0,25.6l-204,0l0,-24l165.6,-233.6l-161.2,0l0,-25.6l197.2,0l0,24Z" style="fill-rule:nonzero;"/></svg>